<?xml version="1.0" encoding="utf-8"?>
<svg xmlns="http://www.w3.org/2000/svg" viewBox="0 0 814 358"><path d="M410.8 266.3L38.5 162.1l145.4-59.9c2.7 34.6 32.7 60.9 67.5 58.8 35.3-2.1 62.2-32.3 60.1-67.6-.8-14.4-6.4-27.4-15.1-37.6l99.5-41-.7-11.3L5.8 164l405.7 113.6-.7-11.3zM200.7 95.2l78.8-32.5c8.6 7.9 14.2 19.1 14.9 31.6 1.5 25.9-18.2 48.1-44.1 49.6-25.9 1.5-48.1-18.2-49.6-44.1v-4.6zm211 187.4l.3 5L6.4 174l7.1-2.9 398.2 111.5zM48.6 304.8h18.1v52.6h-14V323l-12.6 26.7H27.8l-12.6-25.4v33.2h-14v-52.6h18.1l14.9 30.8 14.4-30.9zm71.5 0l-19 52.6h14.5l4.4-12.8h21.7l4.4 12.8h14.6l-19-52.6h-21.6zm3.7 28.7l7.1-20.6 7.1 20.6h-14.2zm107.8-29.1c2.1.2 4.2.5 6.2 1v11.8c-1.8-.4-3.7-.7-5.6-.9-1.9-.2-3.9-.3-6-.3-4.4 0-8 .6-10.8 1.7-2.8 1.1-4.8 2.8-6.1 5.1-1.3 2.2-2 5-2 8.3 0 3.3.7 6.1 2 8.4 1.3 2.2 3.3 3.9 6 5s6.1 1.7 10.3 1.7c2.2 0 4.4-.1 6.4-.4 2.1-.3 4-.6 5.9-1.1v11.9c-1.9.5-4 .9-6.3 1.1-2.3.3-4.6.4-6.9.4-5.4 0-10.1-.6-14.2-1.7s-7.5-2.8-10.3-5.1c-2.8-2.2-4.9-5-6.3-8.4-1.4-3.4-2.1-7.3-2.1-11.7 0-5.6 1.3-10.5 3.8-14.5 2.5-4.1 6.3-7.2 11.2-9.4 4.9-2.2 11-3.3 18.3-3.3 2.2.1 4.4.2 6.5.4zm78.9 0c2.1.2 4.2.5 6.2 1v11.8c-1.8-.4-3.7-.7-5.6-.9-1.9-.2-3.9-.3-6-.3-4.4 0-8 .6-10.8 1.7-2.8 1.1-4.8 2.8-6.1 5.1-1.3 2.2-2 5-2 8.3 0 3.3.7 6.1 2 8.4 1.3 2.2 3.3 3.9 6 5s6.1 1.7 10.3 1.7c2.2 0 4.4-.1 6.4-.4 2.1-.3 4-.6 5.9-1.1v11.9c-1.9.5-4 .9-6.3 1.1-2.3.3-4.6.4-6.9.4-5.4 0-10.1-.6-14.2-1.7s-7.5-2.8-10.3-5.1c-2.8-2.2-4.9-5-6.3-8.4-1.4-3.4-2.1-7.3-2.1-11.7 0-5.6 1.3-10.5 3.8-14.5 2.5-4.1 6.3-7.2 11.2-9.4 4.9-2.2 11-3.3 18.3-3.3 2.2.1 4.4.2 6.5.4zm56.9.4l-19 52.6h14.5l4.4-12.8H389l4.4 12.8H408l-19-52.6h-21.6zm3.7 28.7l7.1-20.6 7.1 20.6h-14.2zm113-2.2c2-2.6 3-5.9 3-9.7 0-6-2.2-10.5-6.5-13.2-4.3-2.8-10.6-4.2-18.9-4.2-2.1 0-4.3.1-6.6.3-2.3.2-4.6.5-6.8.8-2.2.3-4.2.7-6 1.2v51H457V339c1 0 2 .1 2.9.1.8.1 1.6.1 2.4.1l13.5 18.3h16.5l-15.5-20.7c3-1.3 5.5-3.1 7.3-5.5zm-13.4-4.2c-1.7 1.1-4.2 1.7-7.6 1.7-.7 0-1.4 0-2.1-.1-.7 0-1.4-.1-2.1-.1-.7-.1-1.4-.1-2.1-.2V315c.9-.2 1.9-.3 3-.4 1.1-.1 2.1-.2 3.1-.2 2.3 0 4.3.2 5.8.7 1.5.5 2.6 1.3 3.4 2.3.7 1.1 1.1 2.4 1.1 4.1 0 2.7-.8 4.5-2.5 5.6zm70 19.3H570v11.1h-44v-52.6h43.7V316h-28.9v9.1h25.1v11.1h-25.1v10.2zm80.9-.6h27v11.6h-42v-52.6h15v41zm76 0h27v11.6h-42v-52.6h15v41zm112.8-29.2c-2.4-4-5.8-7.1-10.2-9.3-4.4-2.2-9.7-3.3-15.8-3.3-6.1 0-11.4 1.1-15.8 3.2s-7.8 5.2-10.2 9.3c-2.4 4-3.6 8.9-3.6 14.5 0 5.7 1.2 10.5 3.6 14.5 2.4 4 5.8 7.1 10.3 9.3 4.4 2.1 9.7 3.2 15.8 3.2 6.1 0 11.3-1.1 15.8-3.3 4.4-2.2 7.9-5.3 10.3-9.3 2.4-4 3.6-8.9 3.6-14.5-.2-5.4-1.4-10.2-3.8-14.3zm-13.3 23.1c-1.1 2.3-2.8 3.9-4.9 5.1-2.1 1.1-4.8 1.7-7.8 1.7-3.1 0-5.7-.6-7.8-1.7-2.1-1.1-3.8-2.9-4.9-5.2-1.1-2.3-1.7-5.2-1.7-8.8 0-3.4.6-6.2 1.7-8.4s2.8-3.9 5-5 4.7-1.7 7.7-1.7 5.6.6 7.7 1.7c2.1 1.2 3.8 2.9 5 5.2 1.2 2.3 1.7 5.2 1.7 8.7 0 3.4-.5 6.2-1.7 8.4z" fill="#fff"/></svg>